<svg class="diagram-root" style="background: #f5f6f6" xmlns="http://www.w3.org/2000/svg" xmlns:xlink="http://www.w3.org/1999/xlink"><style>.diagram-root { font-family: "Helvetica Neue", sans-serif; font-size: 12px; } .t { overflow: visible; } .t-bg { y: 40; fill: #fff;   } .th { fill: #005aa0;   } .tht { fill: #fff; font-size: 14px;  } .tf { fill: #323c46; overflow: visible; } .tf.pk { fill: #005aa0; font-weight: bold; } .tf.fk { font-weight: bold; } .ty { fill: #adb1b5; font-weight: normal; text-anchor: end; } .r { fill: transparent; stroke: #c3c3c3; stroke-width: 1; } .l { stroke: 1; } .i { fill: #c2c7ce; stroke: #c2c7ce; } .i.ix { fill: #afb3b6; stroke: #000; } .fa { fill: transparent; overflow: visible; } .fa .bg.hover { fill: #f7f7f7; } .c { cy: 12; r: 4; stroke: #d2d2dc; fill: #d2d2dc; } .hr { fill: transparent; stroke: #323c46; stroke-opacity: 0.035; stroke-width: 13; } .dc { stroke: #fa5a3c; fill: #fa5a3c; } .x { stroke: white; stroke-width: 1; } .hl .th { fill: #1b9bff; } .hl .tht {  } .fhl .bg { fill: #e7f4ff; } .fhls .bg {  } .r.hl { stroke: #1b9bff; } .dim { opacity: 0.25; }</style><g class="drawing-wrapper" transform="translate(2, 18) scale(1,1)"><g class="rs"><path d="M 895.16 231 m -1, 0 a 1,1 0 1,0 2,0 a 1,1 0 1,0 -2,0 M 895.16 231 m -0.5, 0 a 0.5,0.5 0 1,0 1,0 a 0.5,0.5 0 1,0 -1,0  M895.16 231 L895.16 231 907.16 231 M 895.16 237 m -1, 0 a 1,1 0 1,0 2,0 a 1,1 0 1,0 -2,0 M 895.16 237 m -0.5, 0 a 0.5,0.5 0 1,0 1,0 a 0.5,0.5 0 1,0 -1,0  M895.16 237 L895.16 237 902.16 231 895.16 225 M 895.16 225 m -1, 0 a 1,1 0 1,0 2,0 a 1,1 0 1,0 -2,0 M 895.16 225 m -0.5, 0 a 0.5,0.5 0 1,0 1,0 a 0.5,0.5 0 1,0 -1,0  M907.16 231 Q 952.37 231, 997.58 276.5 T 1088 322 M 1100 322 m -1, 0 a 1,1 0 1,0 2,0 a 1,1 0 1,0 -2,0 M 1100 322 m -0.5, 0 a 0.5,0.5 0 1,0 1,0 a 0.5,0.5 0 1,0 -1,0  M1100 322 L1100 322 1088 322 M1094 328 L1094 328 1094 316" id="h1537058300" class="r"></path><path d="M 531.83 318 m -1, 0 a 1,1 0 1,0 2,0 a 1,1 0 1,0 -2,0 M 531.83 318 m -0.5, 0 a 0.5,0.5 0 1,0 1,0 a 0.5,0.5 0 1,0 -1,0  M531.83 318 L531.83 318 543.83 318 M 531.83 324 m -1, 0 a 1,1 0 1,0 2,0 a 1,1 0 1,0 -2,0 M 531.83 324 m -0.5, 0 a 0.5,0.5 0 1,0 1,0 a 0.5,0.5 0 1,0 -1,0  M531.83 324 L531.83 324 538.83 318 531.83 312 M 531.83 312 m -1, 0 a 1,1 0 1,0 2,0 a 1,1 0 1,0 -2,0 M 531.83 312 m -0.5, 0 a 0.5,0.5 0 1,0 1,0 a 0.5,0.5 0 1,0 -1,0  M543.83 318 Q 582.88 318, 621.92 262 T 700 206 M 712 206 m -1, 0 a 1,1 0 1,0 2,0 a 1,1 0 1,0 -2,0 M 712 206 m -0.5, 0 a 0.5,0.5 0 1,0 1,0 a 0.5,0.5 0 1,0 -1,0  M712 206 L712 206 700 206 M706 212 L706 212 706 200" id="h1139284389" class="r"></path><path d="M 350 343 m -1, 0 a 1,1 0 1,0 2,0 a 1,1 0 1,0 -2,0 M 350 343 m -0.5, 0 a 0.5,0.5 0 1,0 1,0 a 0.5,0.5 0 1,0 -1,0  M350 343 L350 343 338 343 M 350 349 m -1, 0 a 1,1 0 1,0 2,0 a 1,1 0 1,0 -2,0 M 350 349 m -0.5, 0 a 0.5,0.5 0 1,0 1,0 a 0.5,0.5 0 1,0 -1,0  M350 349 L350 349 343 343 350 337 M 350 337 m -1, 0 a 1,1 0 1,0 2,0 a 1,1 0 1,0 -2,0 M 350 337 m -0.5, 0 a 0.5,0.5 0 1,0 1,0 a 0.5,0.5 0 1,0 -1,0  M338 343 Q 310.29 343, 282.58 215 T 227.17 87 M 215.17 87 m -1, 0 a 1,1 0 1,0 2,0 a 1,1 0 1,0 -2,0 M 215.17 87 m -0.5, 0 a 0.5,0.5 0 1,0 1,0 a 0.5,0.5 0 1,0 -1,0  M215.17 87 L215.17 87 227.17 87 M221.17 93 L221.17 93 221.17 81" id="h1607168654" class="r"></path><path d="M 395 113 m -1, 0 a 1,1 0 1,0 2,0 a 1,1 0 1,0 -2,0 M 395 113 m -0.5, 0 a 0.5,0.5 0 1,0 1,0 a 0.5,0.5 0 1,0 -1,0  M395 113 L395 113 383 113 M 395 119 m -1, 0 a 1,1 0 1,0 2,0 a 1,1 0 1,0 -2,0 M 395 119 m -0.5, 0 a 0.5,0.5 0 1,0 1,0 a 0.5,0.5 0 1,0 -1,0  M395 119 L395 119 388 113 395 107 M 395 107 m -1, 0 a 1,1 0 1,0 2,0 a 1,1 0 1,0 -2,0 M 395 107 m -0.5, 0 a 0.5,0.5 0 1,0 1,0 a 0.5,0.5 0 1,0 -1,0  M383 113 Q 344.04 113, 305.08 100 T 227.17 87 M 215.17 87 m -1, 0 a 1,1 0 1,0 2,0 a 1,1 0 1,0 -2,0 M 215.17 87 m -0.5, 0 a 0.5,0.5 0 1,0 1,0 a 0.5,0.5 0 1,0 -1,0  M215.17 87 L215.17 87 227.17 87 M221.17 93 L221.17 93 221.17 81" id="h1397587031" class="r"></path><path d="M 576.83 138 m -1, 0 a 1,1 0 1,0 2,0 a 1,1 0 1,0 -2,0 M 576.83 138 m -0.5, 0 a 0.5,0.5 0 1,0 1,0 a 0.5,0.5 0 1,0 -1,0  M576.83 138 L576.83 138 588.83 138 M 576.83 144 m -1, 0 a 1,1 0 1,0 2,0 a 1,1 0 1,0 -2,0 M 576.83 144 m -0.5, 0 a 0.5,0.5 0 1,0 1,0 a 0.5,0.5 0 1,0 -1,0  M576.83 144 L576.83 144 583.83 138 576.83 132 M 576.83 132 m -1, 0 a 1,1 0 1,0 2,0 a 1,1 0 1,0 -2,0 M 576.83 132 m -0.5, 0 a 0.5,0.5 0 1,0 1,0 a 0.5,0.5 0 1,0 -1,0  M588.83 138 Q 616.63 138, 644.42 172 T 700 206 M 712 206 m -1, 0 a 1,1 0 1,0 2,0 a 1,1 0 1,0 -2,0 M 712 206 m -0.5, 0 a 0.5,0.5 0 1,0 1,0 a 0.5,0.5 0 1,0 -1,0  M712 206 L712 206 700 206 M706 212 L706 212 706 200" id="h2286254435" class="r"></path><path d="M 1106 197 m -1, 0 a 1,1 0 1,0 2,0 a 1,1 0 1,0 -2,0 M 1106 197 m -0.5, 0 a 0.5,0.5 0 1,0 1,0 a 0.5,0.5 0 1,0 -1,0  M1106 197 L1106 197 1094 197 M 1106 203 m -1, 0 a 1,1 0 1,0 2,0 a 1,1 0 1,0 -2,0 M 1106 203 m -0.5, 0 a 0.5,0.5 0 1,0 1,0 a 0.5,0.5 0 1,0 -1,0  M1106 203 L1106 203 1099 197 1106 191 M 1106 191 m -1, 0 a 1,1 0 1,0 2,0 a 1,1 0 1,0 -2,0 M 1106 191 m -0.5, 0 a 0.5,0.5 0 1,0 1,0 a 0.5,0.5 0 1,0 -1,0  M1094 197 Q 1047.29 197, 1000.58 201.5 T 907.16 206 M 895.16 206 m -1, 0 a 1,1 0 1,0 2,0 a 1,1 0 1,0 -2,0 M 895.16 206 m -0.5, 0 a 0.5,0.5 0 1,0 1,0 a 0.5,0.5 0 1,0 -1,0  M895.16 206 L895.16 206 907.16 206 M901.16 212 L901.16 212 901.16 200" id="h3177548053" class="r"></path></g><g class="hrs"></g><g class="ts"><svg width="185.17" height="100" x="30" y="30" id="h475896179" class="t"><rect height="40" width="185.17" class="th"></rect><text x="13" y="25" class="tht">departments</text><rect height="60" width="185.17" class="t-bg"></rect><text x="13" y="61" class="tf pk">dept_no<tspan x="172.17" class="ty">VARCHAR(4)</tspan></text><path d="M7,14A2,2 0 0,1 5,12A2,2 0 0,1 7,10A2,2 0 0,1 9,12A2,2 0 0,1 7,14M12.65,10C11.83,7.67 9.61,6 7, 6A6, 6 0 0, 0 1, 12A6, 6 0 0, 0 7, 18C9.61, 18 11.83, 16.33 12.65, 14H17V18H21V14H23V10H12.65Z" class="i pk" transform="translate(79.71882812499999, 48) scale(0.65)"></path><text x="13" y="86" class="tf">dept_name<tspan x="172.17" class="ty">VARCHAR(40)</tspan></text></svg><svg width="181.83" height="100" x="350" y="261" id="h1090417462" class="t"><rect height="40" width="181.83" class="th"></rect><text x="13" y="25" class="tht">dept_emp</text><rect height="60" width="181.83" class="t-bg"></rect><text x="13" y="61" class="tf pk">emp_no<tspan x="168.83" class="ty">INT</tspan></text><path d="M7,14A2,2 0 0,1 5,12A2,2 0 0,1 7,10A2,2 0 0,1 9,12A2,2 0 0,1 7,14M12.65,10C11.83,7.67 9.61,6 7, 6A6, 6 0 0, 0 1, 12A6, 6 0 0, 0 7, 18C9.61, 18 11.83, 16.33 12.65, 14H17V18H21V14H23V10H12.65Z" class="i pk" transform="translate(129.499921875, 48) scale(0.65)"></path><text x="13" y="86" class="tf pk">dept_no<tspan x="168.83" class="ty">VARCHAR(4)</tspan></text><path d="M7,14A2,2 0 0,1 5,12A2,2 0 0,1 7,10A2,2 0 0,1 9,12A2,2 0 0,1 7,14M12.65,10C11.83,7.67 9.61,6 7, 6A6, 6 0 0, 0 1, 12A6, 6 0 0, 0 7, 18C9.61, 18 11.83, 16.33 12.65, 14H17V18H21V14H23V10H12.65Z" class="i pk" transform="translate(76.37882812500001, 73) scale(0.65)"></path></svg><svg width="181.83" height="100" x="395" y="56" id="h1676682957" class="t"><rect height="40" width="181.83" class="th"></rect><text x="13" y="25" class="tht">dept_manager</text><rect height="60" width="181.83" class="t-bg"></rect><text x="13" y="61" class="tf pk">dept_no<tspan x="168.83" class="ty">VARCHAR(4)</tspan></text><path d="M7,14A2,2 0 0,1 5,12A2,2 0 0,1 7,10A2,2 0 0,1 9,12A2,2 0 0,1 7,14M12.65,10C11.83,7.67 9.61,6 7, 6A6, 6 0 0, 0 1, 12A6, 6 0 0, 0 7, 18C9.61, 18 11.83, 16.33 12.65, 14H17V18H21V14H23V10H12.65Z" class="i pk" transform="translate(76.37882812500001, 48) scale(0.65)"></path><text x="13" y="86" class="tf pk">emp_no<tspan x="168.83" class="ty">INT</tspan></text><path d="M7,14A2,2 0 0,1 5,12A2,2 0 0,1 7,10A2,2 0 0,1 9,12A2,2 0 0,1 7,14M12.65,10C11.83,7.67 9.61,6 7, 6A6, 6 0 0, 0 1, 12A6, 6 0 0, 0 7, 18C9.61, 18 11.83, 16.33 12.65, 14H17V18H21V14H23V10H12.65Z" class="i pk" transform="translate(129.499921875, 73) scale(0.65)"></path></svg><svg width="183.16" height="225" x="712" y="149" id="h1639608377" class="t"><rect height="40" width="183.16" class="th"></rect><text x="13" y="25" class="tht">employees</text><rect height="185" width="183.16" class="t-bg"></rect><text x="13" y="61" class="tf pk">emp_no<tspan x="170.16" class="ty">INT</tspan></text><path d="M7,14A2,2 0 0,1 5,12A2,2 0 0,1 7,10A2,2 0 0,1 9,12A2,2 0 0,1 7,14M12.65,10C11.83,7.67 9.61,6 7, 6A6, 6 0 0, 0 1, 12A6, 6 0 0, 0 7, 18C9.61, 18 11.83, 16.33 12.65, 14H17V18H21V14H23V10H12.65Z" class="i pk" transform="translate(130.829921875, 48) scale(0.65)"></path><text x="13" y="86" class="tf fk">emp_title_id<tspan x="170.16" class="ty">VARCHAR(5)</tspan></text><text x="13" y="111" class="tf">birth_date<tspan x="170.16" class="ty">DATE</tspan></text><text x="13" y="136" class="tf">first_name<tspan x="170.16" class="ty">VARCHAR(30)</tspan></text><text x="13" y="161" class="tf">last_name<tspan x="170.16" class="ty">VARCHAR(30)</tspan></text><text x="13" y="186" class="tf">sex<tspan x="170.16" class="ty">VARCHAR(1)</tspan></text><text x="13" y="211" class="tf">hire_date<tspan x="170.16" class="ty">DATE</tspan></text></svg><svg width="128.7" height="100" x="1106" y="140" id="h2472833127" class="t"><rect height="40" width="128.7" class="th"></rect><text x="13" y="25" class="tht">salaries</text><rect height="60" width="128.7" class="t-bg"></rect><text x="13" y="61" class="tf pk">emp_no<tspan x="115.69999999999999" class="ty">INT</tspan></text><path d="M7,14A2,2 0 0,1 5,12A2,2 0 0,1 7,10A2,2 0 0,1 9,12A2,2 0 0,1 7,14M12.65,10C11.83,7.67 9.61,6 7, 6A6, 6 0 0, 0 1, 12A6, 6 0 0, 0 7, 18C9.61, 18 11.83, 16.33 12.65, 14H17V18H21V14H23V10H12.65Z" class="i pk" transform="translate(76.36992187499999, 48) scale(0.65)"></path><text x="13" y="86" class="tf pk">salary<tspan x="115.69999999999999" class="ty">INT</tspan></text><path d="M7,14A2,2 0 0,1 5,12A2,2 0 0,1 7,10A2,2 0 0,1 9,12A2,2 0 0,1 7,14M12.65,10C11.83,7.67 9.61,6 7, 6A6, 6 0 0, 0 1, 12A6, 6 0 0, 0 7, 18C9.61, 18 11.83, 16.33 12.65, 14H17V18H21V14H23V10H12.65Z" class="i pk" transform="translate(76.36992187499999, 73) scale(0.65)"></path></svg><svg width="173.14" height="100" x="1100" y="265" id="h311790747" class="t"><rect height="40" width="173.14" class="th"></rect><text x="13" y="25" class="tht">titles</text><rect height="60" width="173.14" class="t-bg"></rect><text x="13" y="61" class="tf pk">title_id<tspan x="160.14" class="ty">VARCHAR(5)</tspan></text><path d="M7,14A2,2 0 0,1 5,12A2,2 0 0,1 7,10A2,2 0 0,1 9,12A2,2 0 0,1 7,14M12.65,10C11.83,7.67 9.61,6 7, 6A6, 6 0 0, 0 1, 12A6, 6 0 0, 0 7, 18C9.61, 18 11.83, 16.33 12.65, 14H17V18H21V14H23V10H12.65Z" class="i pk" transform="translate(67.68882812499999, 48) scale(0.65)"></path><text x="13" y="86" class="tf">title<tspan x="160.14" class="ty">VARCHAR(50)</tspan></text></svg></g></g><text class="qdbd-link" x="10" y="20">www.quickdatabasediagrams.com</text></svg>